<?xml version="1.0" encoding="UTF-8"?>
<svg width="27px" height="29px" viewBox="0 0 27 29" version="1.1" xmlns="http://www.w3.org/2000/svg" xmlns:xlink="http://www.w3.org/1999/xlink">
    <!-- Generator: sketchtool 52.6 (67491) - http://www.bohemiancoding.com/sketch -->
    <title>6C34DC48-F10B-4B35-AEC4-EB936E70D051</title>
    <desc>Created with sketchtool.</desc>
    <g id="Symbols" stroke="none" stroke-width="1" fill="none" fill-rule="evenodd">
        <g id="Tabbar-x3-/-item-2" transform="translate(-47.000000, -10.000000)" fill="#B8B8B8" fill-rule="nonzero">
            <g id="shopping-cart" transform="translate(60.500000, 24.500000) scale(-1, 1) translate(-60.500000, -24.500000) translate(47.000000, 10.000000)">
                <path d="M7.69503919,18.9243924 L23.7038854,18.9243924 C25.5191369,18.9243924 27,17.4594401 27,15.6636921 L27,9.00052209 C27,8.99461502 27,8.98280089 27,8.97689383 C27,8.95917263 27,8.9473585 27,8.9296373 C27,8.91782317 27,8.90600904 26.9940288,8.89419491 C26.9940288,8.88238078 26.9880576,8.86465958 26.9880576,8.85284545 C26.9880576,8.84103132 26.9820863,8.82921719 26.9820863,8.81740305 C26.9761151,8.80558892 26.9761151,8.79377479 26.9701439,8.77605359 C26.9641727,8.76423946 26.9641727,8.75242533 26.9582014,8.7406112 C26.9522302,8.72879707 26.9522302,8.71698294 26.946259,8.70516881 C26.9402878,8.69335468 26.9343166,8.68154054 26.9283453,8.66381935 C26.9223741,8.65200522 26.9164029,8.64019108 26.9104317,8.63428402 C26.9044604,8.62246989 26.8984892,8.61065576 26.892518,8.59884163 C26.8865468,8.58702749 26.8805756,8.58112043 26.8746043,8.5693063 C26.8686331,8.55749217 26.8566907,8.54567803 26.8507194,8.5338639 C26.8447482,8.52204977 26.838777,8.51614271 26.8268346,8.50432857 C26.8208633,8.49251444 26.8089209,8.48660738 26.8029497,8.47479325 C26.7969785,8.46297912 26.785036,8.45707205 26.7790648,8.44525792 C26.7730936,8.43344379 26.7611511,8.42753672 26.7551799,8.42162966 C26.7432375,8.40981552 26.7372662,8.40390846 26.7253238,8.39209433 C26.7133813,8.38618726 26.7074101,8.37437313 26.6954677,8.36846606 C26.6835252,8.362559 26.6715828,8.35074487 26.6596403,8.3448378 C26.6476979,8.33893074 26.6417267,8.33302367 26.6297842,8.32711661 C26.6178418,8.32120954 26.6058993,8.31530247 26.5939569,8.30348834 C26.5820145,8.29758128 26.570072,8.29167421 26.5581296,8.28576715 C26.5461871,8.27986008 26.5342447,8.27395301 26.5223022,8.26804595 C26.5103598,8.26213888 26.4984173,8.25623182 26.4864749,8.25032475 C26.4745325,8.24441769 26.46259,8.24441769 26.4506476,8.23851062 C26.4387051,8.23260355 26.4207915,8.22669649 26.408849,8.22669649 C26.3969066,8.22669649 26.3849641,8.22078942 26.3789929,8.22078942 C26.3610792,8.21488236 26.3491368,8.21488236 26.3312231,8.21488236 C26.3252519,8.21488236 26.3192807,8.20897529 26.3073382,8.20897529 L6.0171258,5.4385615 L6.0171258,2.63861239 C6.0171258,2.60907706 6.0171258,2.57954173 6.01115457,2.55591347 C6.01115457,2.5500064 6.01115457,2.54409934 6.00518335,2.5322852 C6.00518335,2.51456401 5.99921213,2.49684281 5.99921213,2.47912161 C5.99324091,2.46140042 5.99324091,2.44958629 5.98726969,2.43186509 C5.98726969,2.42005096 5.98129846,2.41414389 5.98129846,2.40232976 C5.97532724,2.38460856 5.96935602,2.36688737 5.9633848,2.34916617 C5.9633848,2.3432591 5.95741358,2.33144497 5.95741358,2.32553791 C5.95144235,2.30781671 5.94547113,2.29600258 5.93352869,2.27828138 C5.92755747,2.27237432 5.92755747,2.26056019 5.92158624,2.25465312 C5.91561502,2.24283899 5.9096438,2.23102486 5.89770136,2.21921073 C5.89173013,2.20739659 5.88575891,2.20148953 5.87978769,2.1896754 C5.87381647,2.17786127 5.86784525,2.1719542 5.86187402,2.16014007 C5.8559028,2.14832594 5.84396036,2.13651181 5.83798914,2.12469768 C5.83201791,2.11879061 5.82604669,2.11288354 5.82007547,2.10697648 C5.80813303,2.09516235 5.79619058,2.08334822 5.78424814,2.07153408 C5.77827692,2.06562702 5.77230569,2.05971995 5.76633447,2.05381289 C5.75439203,2.04199876 5.74244958,2.03018462 5.72453592,2.01837049 C5.7185647,2.01246343 5.70662225,2.00655636 5.70065103,2.0006493 C5.68870859,1.98883517 5.67676614,1.9829281 5.6648237,1.97111397 C5.64691003,1.95929984 5.62899636,1.94748571 5.61705392,1.94157864 C5.6110827,1.93567157 5.60511148,1.93567157 5.59914025,1.92976451 C5.57525537,1.91795038 5.54539926,1.90613625 5.52151437,1.89432211 L1.12072373,0.0631317641 C0.708709414,-0.10817314 0.236982874,0.0808529611 0.0638174354,0.488440491 C-0.109348003,0.89602802 0.0817311015,1.36268621 0.493745421,1.53399111 L4.39892463,3.16434123 L4.39892463,6.77946541 L4.39892463,7.35245077 L4.39892463,11.7473076 L4.39892463,15.6755063 L4.39892463,20.6374414 C4.39892463,22.2914198 5.65288125,23.661859 7.27108242,23.8686063 C6.97849254,24.3529857 6.8053271,24.920064 6.8053271,25.5225847 C6.8053271,27.3006115 8.2682765,28.7419355 10.0596431,28.7419355 C11.8510097,28.7419355 13.3139591,27.2947044 13.3139591,25.5225847 C13.3139591,24.9318781 13.1527361,24.3707069 12.8661175,23.8981417 L20.115181,23.8981417 C19.8285623,24.376614 19.6673394,24.9318781 19.6673394,25.5225847 C19.6673394,27.3006115 21.1302887,28.7419355 22.9216554,28.7419355 C24.713022,28.7419355 26.1759714,27.2947044 26.1759714,25.5225847 C26.1759714,23.750465 24.713022,22.3032339 22.9216554,22.3032339 L7.69503919,22.3032339 C6.76352855,22.3032339 6.01115457,21.5530366 6.01115457,20.6374414 L6.01115457,18.4754554 C6.50079478,18.7589945 7.08000332,18.9243924 7.69503919,18.9243924 Z M11.7077004,25.5166776 C11.7077004,26.4145516 10.9672689,27.1411207 10.0656143,27.1411207 C9.1639598,27.1411207 8.42352827,26.4086446 8.42352827,25.5166776 C8.42352827,24.6247107 9.1639598,23.8922346 10.0656143,23.8922346 C10.9672689,23.8922346 11.7077004,24.6188037 11.7077004,25.5166776 Z M24.5697126,25.5166776 C24.5697126,26.4145516 23.8292811,27.1411207 22.9276266,27.1411207 C22.0259721,27.1411207 21.2855405,26.4086446 21.2855405,25.5166776 C21.2855405,24.6247107 22.0259721,23.8922346 22.9276266,23.8922346 C23.8292811,23.8922346 24.5697126,24.6188037 24.5697126,25.5166776 Z M23.7038854,17.3294847 L7.69503919,17.3294847 C6.76352855,17.3294847 6.01115457,16.5792873 6.01115457,15.6636921 L6.01115457,11.7354935 L6.01115457,7.34063664 L6.01115457,7.04528336 L25.3877701,9.6857417 L25.3877701,15.6577851 C25.3877701,16.5851944 24.6294249,17.3294847 23.7038854,17.3294847 Z" id="Shape"></path>
            </g>
        </g>
    </g>
</svg>