<?xml version="1.0" encoding="UTF-8"?>
<svg width="27px" height="27px" viewBox="0 0 27 27" version="1.1" xmlns="http://www.w3.org/2000/svg" xmlns:xlink="http://www.w3.org/1999/xlink">
    <!-- Generator: sketchtool 52.6 (67491) - http://www.bohemiancoding.com/sketch -->
    <title>488904F5-9F41-478D-9520-C54730D1F5B5</title>
    <desc>Created with sketchtool.</desc>
    <g id="Symbols" stroke="none" stroke-width="1" fill="none" fill-rule="evenodd">
        <g id="Tabbar-x3-/-item-1" transform="translate(-47.000000, -11.000000)" fill="#B8B8B8" fill-rule="nonzero">
            <g id="homepage" transform="translate(60.500000, 24.500000) scale(-1, 1) translate(-60.500000, -24.500000) translate(47.000000, 11.000000)">
                <path d="M26.6848068,11.1407068 L14.109516,0.227044462 C13.7605887,-0.0756814873 13.2393059,-0.0756814873 12.8904526,0.227044462 L0.315161857,11.1407068 C-0.068828344,11.4739764 -0.107293939,12.0524737 0.229280018,12.4328405 C0.565853976,12.8129875 1.15016116,12.8511487 1.53415136,12.5178059 L2.50784872,11.6728394 L2.50784872,25.2903067 C2.50784872,25.7959242 2.92179771,26.2058824 3.43250245,26.2058824 L10.4401202,26.2058824 L16.5598484,26.2058824 L23.5673922,26.2058824 C24.0780969,26.2058824 24.4920459,25.7959242 24.4920459,25.2903067 L24.4920459,11.6729126 L25.4657433,12.5179524 C25.6412796,12.6701577 25.8586102,12.7450152 26.0748312,12.7450152 C26.3319589,12.7450152 26.5877551,12.6394676 26.7705407,12.4329137 C27.1073365,12.0524737 27.0688709,11.4740496 26.6848068,11.1407068 Z M11.3647739,24.3748042 L11.3647739,16.8324381 L15.6351207,16.8324381 L15.6351207,24.3748042 L11.3647739,24.3748042 Z M22.6428864,10.0749767 L22.6428864,24.374731 L17.4846501,24.374731 L17.4846501,15.9168624 C17.4846501,15.4112449 17.0705532,15.0012867 16.5599964,15.0012867 L10.4402681,15.0012867 C9.92963736,15.0012867 9.51561441,15.4112449 9.51561441,15.9168624 L9.51561441,24.3748042 L4.35723015,24.3748042 L4.35723015,10.0749767 C4.35723015,10.0726328 4.35693427,10.0704354 4.35693427,10.0681648 L13.4999843,2.13305333 L22.6431823,10.0680916 C22.6432563,10.0705087 22.6428864,10.0726328 22.6428864,10.0749767 Z" id="Shape"></path>
                <path d="M11.1176471,8.73529412 C11.1176471,9.17390118 11.5144223,9.52941176 12.0039391,9.52941176 L14.2019433,9.52941176 C14.6913892,9.52941176 15.0882353,9.17390118 15.0882353,8.73529412 C15.0882353,8.29668706 14.6913892,7.94117647 14.2019433,7.94117647 L12.0039391,7.94117647 C11.5144932,7.94117647 11.1176471,8.29668706 11.1176471,8.73529412 Z" id="Path"></path>
            </g>
        </g>
    </g>
</svg>