<?xml version="1.0" encoding="UTF-8"?>
<svg width="27px" height="30px" viewBox="0 0 27 30" version="1.1" xmlns="http://www.w3.org/2000/svg" xmlns:xlink="http://www.w3.org/1999/xlink">
    <!-- Generator: sketchtool 52.6 (67491) - http://www.bohemiancoding.com/sketch -->
    <title>49ED502E-1BB5-45C1-B398-FD9D531AC7CB</title>
    <desc>Created with sketchtool.</desc>
    <g id="Symbols" stroke="none" stroke-width="1" fill="none" fill-rule="evenodd">
        <g id="Tabbar-x3-/-item-3" transform="translate(-47.000000, -10.000000)" fill="#B8B8B8" fill-rule="nonzero">
            <g id="avatar" transform="translate(47.000000, 10.000000)">
                <path d="M13.4411885,16.4516129 C13.4736729,16.4516129 13.5061574,16.4516129 13.5451387,16.4516129 C13.5581324,16.4516129 13.5711262,16.4516129 13.58412,16.4516129 C13.6036106,16.4516129 13.6295981,16.4516129 13.6490888,16.4516129 C15.5526753,16.4199995 17.0924365,15.7687635 18.2293909,14.5231956 C20.7306906,11.7791525 20.3148902,7.07507872 20.269412,6.62616846 C20.1069899,3.25618011 18.4697755,1.64389675 17.118424,0.891497855 C16.1114072,0.328779351 14.9354715,0.0252907193 13.6231012,0 L13.5776231,0 C13.5711262,0 13.5581324,0 13.5516355,0 L13.5126542,0 C12.7915003,0 11.3751799,0.113808237 10.0173315,0.866207136 C8.65298618,1.61860604 6.98978428,3.23088939 6.82736222,6.62616846 C6.78188404,7.07507872 6.36608356,11.7791525 8.8673833,14.5231956 C9.99784085,15.7687635 11.537602,16.4199995 13.4411885,16.4516129 Z M8.56202983,6.78423545 C8.56202983,6.76526741 8.56852671,6.74629937 8.56852671,6.73365401 C8.78292383,2.20029258 12.089837,1.71344623 13.5061574,1.71344623 L13.5321449,1.71344623 C13.5451387,1.71344623 13.5646293,1.71344623 13.58412,1.71344623 C15.3382782,1.75138231 18.3203472,2.44687709 18.5217506,6.73365401 C18.5217506,6.75262205 18.5217506,6.77159009 18.5282475,6.78423545 C18.5347444,6.82849421 18.9895261,11.1279165 16.9235175,13.3914359 C16.1049103,14.2892564 15.0134341,14.731844 13.5776231,14.7444894 C13.5646293,14.7444894 13.5581324,14.7444894 13.5451387,14.7444894 C13.5321449,14.7444894 13.525648,14.7444894 13.5126542,14.7444894 C12.0833401,14.731844 10.985367,14.2892564 10.1732567,13.3914359 C8.11374494,11.1405619 8.55553294,6.82217153 8.56202983,6.78423545 Z" id="Shape"></path>
                <path d="M26.1272508,23.9847108 C26.1272508,23.9786531 26.1272508,23.9725954 26.1272508,23.9665377 C26.1272508,23.9180761 26.1208895,23.8696146 26.1208895,23.8150953 C26.0827222,22.6156721 26.0000264,19.8109602 23.2392581,18.9144216 C23.2201745,18.9083639 23.1947296,18.9023062 23.1756459,18.8962485 C20.3067369,18.1996138 17.9212804,16.6246136 17.8958356,16.6064406 C17.5078013,16.3459598 16.9734591,16.4368252 16.6999267,16.8063444 C16.4263944,17.1758637 16.5218126,17.6847099 16.9098469,17.9451907 C17.0179876,18.017883 19.5497521,19.695864 22.7176383,20.4712488 C24.1998019,20.9740373 24.3651936,22.4824029 24.4097221,23.8635569 C24.4097221,23.9180761 24.4097221,23.9665377 24.4160833,24.0149992 C24.4224445,24.5601916 24.3842772,25.4022109 24.2824977,25.8868264 C23.2519805,26.4441342 19.2126076,28.3704806 13.0676716,28.3704806 C6.9481806,28.3704806 2.88336274,26.4380765 1.84648432,25.8807687 C1.74470484,25.3961532 1.70017632,24.5541339 1.71289876,24.0089415 C1.71289876,23.96048 1.71925998,23.9120184 1.71925998,23.8574992 C1.7637885,22.4763452 1.92918015,20.9679796 3.41134378,20.4651911 C6.57922999,19.6898063 9.11099448,18.0057677 9.21913517,17.939133 C9.60716943,17.6786522 9.70258769,17.169806 9.42905534,16.8002867 C9.155523,16.4307675 8.62118075,16.3399021 8.23314649,16.6003829 C8.20770162,16.6185559 5.83496757,18.1935561 2.95333613,18.8901909 C2.92789126,18.8962485 2.90880761,18.9023062 2.88972396,18.9083639 C0.12895565,19.8109602 0.0462598252,22.6156721 0.00809252136,23.8090377 C0.00809252136,23.8635569 0.00809252136,23.9120184 0.00173130406,23.96048 C0.00173130406,23.9665377 0.00173130406,23.9725954 0.00173130406,23.9786531 C-0.00462991324,24.2936531 -0.0109911305,25.9110572 0.326153386,26.722788 C0.389765559,26.8802881 0.504267471,27.0135573 0.656936686,27.1044227 C0.847773205,27.2255766 5.42148844,30 13.0740329,30 C20.7265773,30 25.3002925,27.2195189 25.491129,27.1044227 C25.637437,27.0135573 25.7583002,26.8802881 25.8219123,26.722788 C26.1399732,25.9171149 26.133612,24.2997108 26.1272508,23.9847108 Z" id="Path"></path>
            </g>
        </g>
    </g>
</svg>